HIERARCHY
ROOT joint_Root
{
	OFFSET 0.0 0.0 0.0
	CHANNELS 6 Xposition Yposition Zposition Zrotation Xrotation Yrotation 
	JOINT Hips
	{
		OFFSET -17.1583 93.1646 452.98
		CHANNELS 6 Xposition Yposition Zposition Zrotation Xrotation Yrotation 
		JOINT Spine
		{
			OFFSET 15.7357 0.0 0.0
			CHANNELS 6 Xposition Yposition Zposition Zrotation Xrotation Yrotation 
			JOINT Chest
			{
				OFFSET 8.98455 -0.406207 0.0
				CHANNELS 6 Xposition Yposition Zposition Zrotation Xrotation Yrotation 
				JOINT Neck
				{
					OFFSET 16.3773 0.0 0.0
					CHANNELS 6 Xposition Yposition Zposition Zrotation Xrotation Yrotation 
					JOINT Head
					{
						OFFSET 6.45672 0.0 0.0
						CHANNELS 6 Xposition Yposition Zposition Zrotation Xrotation Yrotation 
						End Site
						{
							OFFSET 0.0 0.0 0.0
						}
					}
				}
				JOINT Shoulder_L
				{
					OFFSET 12.9942 -0.242716 4.98039
					CHANNELS 6 Xposition Yposition Zposition Zrotation Xrotation Yrotation 
					JOINT UpperArm_L
					{
						OFFSET 5.34809 0.0 0.0
						CHANNELS 6 Xposition Yposition Zposition Zrotation Xrotation Yrotation 
						JOINT LowerArm_L
						{
							OFFSET 24.3286 1.87007e-05 0.0
							CHANNELS 6 Xposition Yposition Zposition Zrotation Xrotation Yrotation 
							JOINT Hand_L
							{
								OFFSET 22.2916 0.0 0.0
								CHANNELS 6 Xposition Yposition Zposition Zrotation Xrotation Yrotation 
								End Site
								{
									OFFSET 0.0 0.0 0.0
								}
							}
						}
					}
				}
				JOINT Shoulder_R
				{
					OFFSET 12.9945 -0.242716 -4.98039
					CHANNELS 6 Xposition Yposition Zposition Zrotation Xrotation Yrotation 
					JOINT UpperArm_R
					{
						OFFSET -5.34813 0.0 0.0
						CHANNELS 6 Xposition Yposition Zposition Zrotation Xrotation Yrotation 
						JOINT LowerArm_R
						{
							OFFSET -24.3289 0.000322201 0.0
							CHANNELS 6 Xposition Yposition Zposition Zrotation Xrotation Yrotation 
							JOINT Hand_R
							{
								OFFSET -22.2915 -0.000108084 0.0
								CHANNELS 6 Xposition Yposition Zposition Zrotation Xrotation Yrotation 
								End Site
								{
									OFFSET 0.0 0.0 0.0
								}
							}
						}
					}
				}
			}
		}
		JOINT UpperLeg_L
		{
			OFFSET -2.19248 -6.46944 0.0
			CHANNELS 6 Xposition Yposition Zposition Zrotation Xrotation Yrotation 
			JOINT LowerLeg_L
			{
				OFFSET 39.0811 0.0 -1.23785e-05
				CHANNELS 6 Xposition Yposition Zposition Zrotation Xrotation Yrotation 
				JOINT Foot_L
				{
					OFFSET 40.9854 0.0 -1.26872e-05
					CHANNELS 6 Xposition Yposition Zposition Zrotation Xrotation Yrotation 
					JOINT Toes_L
					{
						OFFSET 11.7543 0.0 0.0
						CHANNELS 6 Xposition Yposition Zposition Zrotation Xrotation Yrotation 
						End Site
						{
							OFFSET 0.0 0.0 0.0
						}
					}
				}
			}
		}
		JOINT UpperLeg_R
		{
			OFFSET -2.19251 6.46944 0.0
			CHANNELS 6 Xposition Yposition Zposition Zrotation Xrotation Yrotation 
			JOINT LowerLeg_R
			{
				OFFSET -39.0811 -0.00228153 -0.0401928
				CHANNELS 6 Xposition Yposition Zposition Zrotation Xrotation Yrotation 
				JOINT Foot_R
				{
					OFFSET -40.9854 0.0 0.0
					CHANNELS 6 Xposition Yposition Zposition Zrotation Xrotation Yrotation 
					JOINT Toes_R
					{
						OFFSET -11.7543 0.0 0.0
						CHANNELS 6 Xposition Yposition Zposition Zrotation Xrotation Yrotation 
						End Site
						{
							OFFSET 0.0 0.0 0.0
						}
					}
				}
			}
		}
	}
}
MOTION
Frames:	7
Frame Time:	0.0333333
0.000000 0.000000 0.000000 0.000000 0.000000 -0.000000 -0.062808 91.636700 -27.769900 88.573000 -5.307210 1.381790 15.735700 0.000005 -0.000001 112.831000 86.224300 -111.687000 8.984550 -0.406207 -0.000000 -0.833404 2.843600 2.308560 16.377300 -0.000001 -0.000001 5.826940 4.150250 -3.011100 6.456720 -0.000001 -0.000000 -3.474210 3.231970 -1.449170 12.994200 -0.242716 4.980390 -93.087300 7.780150 -68.276700 5.348090 -0.000007 -0.000001 -60.341900 -23.954600 12.956000 24.328600 0.000019 0.000005 14.859100 26.812800 -30.463200 22.291600 -0.000001 0.000005 45.293900 4.467530 17.133500 12.994500 -0.242716 -4.980390 88.257500 4.489210 -68.760600 -5.348130 -0.000001 -0.000004 -71.695900 15.837800 -16.012000 -24.328900 0.000322 -0.000009 -0.580471 -0.609250 -43.563000 -22.291500 -0.000108 -0.000004 45.554800 5.525740 -7.609170 -2.192480 -6.469440 -0.000000 -177.859000 -1.755750 -19.365600 39.081100 -0.000007 -0.000012 0.005905 -0.034327 9.761080 40.985400 -0.000006 -0.000013 -5.116120 4.794790 -59.609200 11.754300 -0.000000 0.000003 0.002227 0.110955 -12.077300 -2.192510 6.469440 -0.000001 -177.987000 6.129960 -171.036000 -39.081100 -0.002282 -0.040193 -0.009531 0.039728 17.932300 -40.985400 0.000008 0.000006 -1.340620 14.305100 -70.484200 -11.754300 -0.000006 -0.000006 0.001143 0.145496 -10.672800
0.000000 0.000000 0.000000 0.000000 0.000000 -0.000000 0.086328 90.942400 -24.073400 88.390100 -5.363960 0.637358 15.735700 0.000005 -0.000001 115.776000 86.388600 -114.628000 8.984550 -0.406207 -0.000000 -1.291600 3.049490 2.330250 16.377300 -0.000001 -0.000001 5.324380 4.044690 -2.860120 6.456720 -0.000001 -0.000000 -3.679880 2.995470 -1.367120 12.994200 -0.242716 4.980390 -93.182500 8.026140 -68.286100 5.348090 -0.000007 -0.000001 -58.500800 -25.088700 13.098100 24.328600 0.000019 0.000005 14.395400 26.267600 -30.112000 22.291600 -0.000001 0.000005 45.802600 4.454000 17.354000 12.994500 -0.242716 -4.980390 88.250000 4.564300 -68.997000 -5.348130 -0.000001 -0.000004 -71.675800 15.651300 -15.772700 -24.328900 0.000322 -0.000009 -0.659231 -0.666233 -44.648100 -22.291500 -0.000108 -0.000004 45.843100 5.527970 -7.704310 -2.192480 -6.469440 -0.000000 -178.357000 -2.166380 -20.140600 39.081100 -0.000007 -0.000012 0.000324 -0.003580 5.188240 40.985400 -0.000006 -0.000013 -6.315070 8.207220 -61.625400 11.754300 -0.000000 0.000003 0.002245 0.110000 -12.116100 -2.192510 6.469440 -0.000001 -178.525000 6.612580 -170.277000 -39.081100 -0.002282 -0.040193 -0.017677 0.058787 19.657200 -40.985400 0.000008 0.000006 -1.423390 14.943600 -70.688200 -11.754300 -0.000006 -0.000006 0.002487 0.081891 -13.252100
0.000000 0.000000 0.000000 0.000000 0.000000 -0.000000 0.348055 90.299100 -19.975100 88.741300 -5.248750 -0.056757 15.735700 0.000005 -0.000001 119.043000 86.589100 -118.081000 8.984550 -0.406207 -0.000000 -1.829320 3.230370 1.975900 16.377300 -0.000001 -0.000001 5.028010 3.865530 -2.688950 6.456720 -0.000001 -0.000000 -3.916900 2.696360 -1.177300 12.994200 -0.242716 4.980390 -93.327400 8.398250 -68.293900 5.348090 -0.000007 -0.000001 -57.251000 -26.069200 12.821000 24.328600 0.000019 0.000005 14.206200 25.816600 -30.169600 22.291600 -0.000001 0.000005 45.655500 4.455900 17.323100 12.994500 -0.242716 -4.980390 88.194500 4.773890 -69.254900 -5.348130 -0.000001 -0.000004 -71.605200 15.215500 -14.892300 -24.328900 0.000322 -0.000009 -0.921143 -0.944121 -44.263800 -22.291500 -0.000108 -0.000004 46.049900 5.530960 -7.837910 -2.192480 -6.469440 -0.000000 -179.570000 -2.453920 -21.220400 39.081100 -0.000007 -0.000012 -0.001428 0.017593 4.637200 40.985400 -0.000006 -0.000013 -7.635620 9.143380 -61.888300 11.754300 -0.000000 0.000003 0.002335 0.104573 -12.336100 -2.192510 6.469440 -0.000001 -179.518000 6.582360 -169.772000 -39.081100 -0.002282 -0.040193 -0.021281 0.060894 21.997000 -40.985400 0.000008 0.000006 -1.617460 15.094600 -70.124100 -11.754300 -0.000006 -0.000006 -0.000776 -0.012176 -17.068400
0.000000 0.000000 0.000000 0.000000 0.000000 -0.000000 0.718125 89.780500 -15.493300 89.837700 -4.940170 -1.112960 15.735700 0.000005 -0.000001 122.956000 87.012700 -122.424000 8.984550 -0.406207 -0.000000 -2.769260 3.200110 1.142130 16.377300 -0.000001 -0.000001 5.150500 3.784570 -2.478750 6.456720 -0.000001 -0.000000 -4.347500 2.494490 -0.988637 12.994200 -0.242716 4.980390 -93.553600 8.966000 -68.274200 5.348090 -0.000007 -0.000001 -56.565700 -26.894000 12.241600 24.328600 0.000019 0.000005 14.131800 25.569100 -30.257000 22.291600 -0.000001 0.000005 45.992900 4.449550 17.425700 12.994500 -0.242716 -4.980390 88.058700 5.165560 -69.370100 -5.348130 -0.000001 -0.000004 -71.291300 15.048900 -13.565800 -24.328900 0.000322 -0.000009 -1.219750 -1.338520 -42.323100 -22.291500 -0.000108 -0.000004 46.379800 5.537650 -8.136200 -2.192480 -6.469440 -0.000000 177.694000 -1.422410 -27.866200 39.081100 -0.000007 -0.000012 -0.017940 0.057303 17.383400 40.985400 -0.000006 -0.000013 0.688103 8.413910 -60.191500 11.754300 -0.000000 0.000003 0.002425 0.097128 -12.637900 -2.192510 6.469440 -0.000001 178.945000 6.196640 -170.145000 -39.081100 -0.002282 -0.040193 -0.014138 0.037312 25.064100 -40.985400 0.000008 0.000006 -1.923550 14.519600 -68.235600 -11.754300 -0.000006 -0.000006 -0.015928 -0.143582 -22.432700
0.000000 0.000000 0.000000 0.000000 0.000000 -0.000000 1.194250 89.523700 -10.678300 91.527200 -4.488980 -1.668830 15.735700 0.000005 -0.000001 124.594000 87.552400 -124.733000 8.984550 -0.406207 -0.000000 -3.735190 2.791540 -0.187356 16.377300 -0.000001 -0.000001 5.656400 3.777310 -2.231220 6.456720 -0.000001 -0.000000 -4.095360 2.622070 -0.504631 12.994200 -0.242716 4.980390 -93.864200 9.728160 -68.211300 5.348090 -0.000007 -0.000001 -55.961400 -27.686600 11.755400 24.328600 0.000019 0.000005 13.877800 25.144000 -30.176500 22.291600 -0.000001 0.000005 46.700200 4.449890 17.420800 12.994500 -0.242716 -4.980390 87.744500 6.002680 -69.362500 -5.348130 -0.000001 -0.000004 -71.050700 14.776800 -11.662900 -24.328900 0.000322 -0.000009 -1.216100 -1.535020 -38.362200 -22.291500 -0.000108 -0.000004 46.894700 5.557150 -9.043300 -2.192480 -6.469440 -0.000000 176.165000 2.510910 -29.859500 39.081100 -0.000007 -0.000012 0.072284 -0.161306 24.137800 40.985400 -0.000006 -0.000013 2.247290 5.342500 -58.484500 11.754300 -0.000000 0.000003 0.002024 0.120007 -11.710300 -2.192510 6.469440 -0.000001 176.932000 5.227920 -171.015000 -39.081100 -0.002282 -0.040193 0.001383 0.003433 29.224000 -40.985400 0.000008 0.000006 -3.607020 13.541200 -63.245400 -11.754300 -0.000006 -0.000006 -0.053827 -0.311154 -29.401900
0.000000 0.000000 0.000000 0.000000 0.000000 -0.000000 1.524740 89.527900 -5.616020 92.815900 -3.458400 -0.604128 15.735700 0.000005 -0.000001 117.141000 87.644900 -117.815000 8.984550 -0.406207 -0.000000 -3.562410 2.214130 -1.279790 16.377300 -0.000001 -0.000001 6.263110 3.624470 -2.324130 6.456720 -0.000001 -0.000000 -3.480890 2.564940 0.237284 12.994200 -0.242716 4.980390 -93.838700 9.671700 -68.228800 5.348090 -0.000007 -0.000001 -57.776500 -27.570400 9.725250 24.328600 0.000019 0.000005 13.088600 24.715200 -29.076800 22.291600 -0.000001 0.000005 47.898700 4.428240 17.769200 12.994500 -0.242716 -4.980390 87.793900 5.854010 -69.308600 -5.348130 -0.000001 -0.000004 -72.641900 13.359100 -9.127520 -24.328900 0.000322 -0.000009 -1.184280 -1.848890 -32.651500 -22.291500 -0.000108 -0.000004 47.033100 5.566370 -9.505470 -2.192480 -6.469440 -0.000000 174.781000 6.356280 -28.129200 39.081100 -0.000007 -0.000012 0.136746 -0.251474 28.536400 40.985400 -0.000006 -0.000013 3.050010 3.649360 -59.255700 11.754300 -0.000000 0.000003 0.001509 0.136392 -11.045700 -2.192510 6.469440 -0.000001 175.013000 5.275760 -171.624000 -39.081100 -0.002282 -0.040193 0.029165 -0.037046 34.931600 -40.985400 0.000008 0.000006 -6.245700 12.734900 -54.652300 -11.754300 -0.000006 -0.000006 -0.082333 -0.398419 -33.124300
0.000000 0.000000 0.000000 0.000000 0.000000 -0.000000 1.863040 89.739800 -0.682958 93.319000 -3.282270 1.494300 15.735700 0.000005 -0.000001 112.578000 87.172600 -113.411000 8.984550 -0.406207 -0.000000 -2.528520 2.245220 -1.615460 16.377300 -0.000001 -0.000001 7.095080 3.582070 -2.650080 6.456720 -0.000001 -0.000000 -3.114300 2.468160 0.381408 12.994200 -0.242716 4.980390 -93.708000 9.342450 -68.237200 5.348090 -0.000007 -0.000001 -61.403800 -27.052000 7.244690 24.328600 0.000019 0.000005 12.806900 24.183200 -29.026400 22.291600 -0.000001 0.000005 47.962400 4.420320 17.898000 12.994500 -0.242716 -4.980390 87.968700 5.387990 -69.307200 -5.348130 -0.000001 -0.000004 -73.653100 12.861100 -6.538630 -24.328900 0.000322 -0.000009 -2.311060 -4.591280 -26.769000 -22.291500 -0.000108 -0.000004 47.020400 5.569600 -9.667040 -2.192480 -6.469440 -0.000000 173.369000 7.784620 -24.049400 39.081100 -0.000007 -0.000012 0.222472 -0.367818 31.167500 40.985400 -0.000006 -0.000013 3.935570 2.423450 -61.708900 11.754300 -0.000000 0.000003 0.000670 0.155469 -10.271600 -2.192510 6.469440 -0.000001 173.739000 3.800430 -173.523000 -39.081100 -0.002282 -0.040193 0.094392 -0.098587 42.746300 -40.985400 0.000008 0.000006 -11.087900 10.790400 -43.731600 -11.754300 -0.000006 -0.000006 -0.028480 -0.210409 -25.189500
